{"title":"Kick Ass R5 XViD AC3 - IMAGiNE","uid":5545947,"size":2907207182,"categoryP":"video","categoryS":"movies","magnet":"?xt=urn:btih:2766cbc81461f8cd5041eeaaacdc40e8f75a2213&amp;dn=Kick+Ass+R5+XViD+AC3+-+IMAGiNE&amp;tr=udp%3A%2F%2Ftracker.openbittorrent.com%3A80&amp;tr=udp%3A%2F%2Fopen.demonii.com%3A1337&amp;tr=udp%3A%2F%2Ftracker.coppersurfer.tk%3A6969&amp;tr=udp%3A%2F%2Fexodus.desync.com%3A6969","seeders":1,"leechers":0,"uploader":"TvTeam","files":52,"time":1273381228,"description":". \n &lt;a href=&quot;\nhttp://www.torrentday.com&quot; rel=&quot;nofollow&quot; target=&quot;_NEW&quot;&gt;\nhttp://www.torrentday.com&lt;/a&gt;   -    Your Key To The Scene.\n\n\nNow TvTeam with [No-RAR] Releases.\n\n\n(((((((((((((= Enjoy No RAR releases =))))))))))))))))))))\n\n...................................NFO:....................................\n\n\n\nKick Ass R5 XViD AC3 - IMAGiNE\n\n\nRipper ...........: IMAGiNE                                        IMDB Rating.......:8.5/10                             \nVideo Codec.......: XVID                                         Release Date......:08/05/10\nAudio Codec.......:AC3                                           Theatre Date......:16/04/10\nAudio Bitrate.....:384                                              Runtime.......:1h 52mn\nSubtitles.........:NIL                                                 Language..........:ENGLISH\nResolution...... 720 x 320                                      IMDb URL..........:http://www.imdb.com/title/tt1250777/\n\n\n[color=yellow]DETAILS:[/color]\n\nVideo\nFormat                           : MPEG-4 Visual\nFormat profile                   : Streaming Video@L1\nFormat settings, BVOP            : Yes\nFormat settings, QPel            : No\nFormat settings, GMC             : No warppoints\nFormat settings, Matrix          : Default\nMuxing mode                      : Packed bitstream\nCodec ID                         : XVID\nCodec ID/Hint                    : XviD\nDuration                         : 1h 52mn\nBit rate                         : 2 200 Kbps\nWidth                            : 720 pixels\nHeight                           : 320 pixels\nDisplay aspect ratio             : 2.25\nFrame rate                       : 25.000 fps\nResolution                       : 24 bits\nColorimetry                      : 4:2:0\nScan type                        : Progressive\nBits/(Pixel*Frame)               : 0.382\nStream size                      : 1.73 GiB (85%)\nWriting library                  : XviD 50\n\nAudio\nFormat                           : AC-3\nFormat/Info                      : Audio Coding 3\nCodec ID                         : 2000\nDuration                         : 1h 52mn\nBit rate mode                    : Constant\nBit rate                         : 384 Kbps\nChannel(s)                       : 6 channels\nChannel positions                : Front: L C R, Surround: L R, LFE\nSampling rate                    : 48.0 KHz\nStream size                      : 310 MiB (15%)\nAlignment                        : Aligned on interleaves\nInterleave, duration             : 40 ms (1.00 video frame)\nInterleave, preload duration     : 512 ms\n\n\n\nNOTES:\n\nIMAGiNE bringing you another release.....Kick Ass R5\nWe know there are a lot of releases for this one out there already, but we thought we would release this along with them just incase a few wanted it. Was a very nice R5 so not much had to be done. A few normal things to the video and that was it. Sources where the Russian R5 for video (Thanks). &amp; Our own sweet line audio.\n\nEnjoy...","torrent":{"xt":"urn:btih:2766cbc81461f8cd5041eeaaacdc40e8f75a2213","amp;dn":"Kick+Ass+R5+XViD+AC3+-+IMAGiNE","amp;tr":["udp%3A%2F%2Ftracker.openbittorrent.com%3A80","udp%3A%2F%2Fopen.demonii.com%3A1337","udp%3A%2F%2Ftracker.coppersurfer.tk%3A6969","udp%3A%2F%2Fexodus.desync.com%3A6969"],"infoHash":"2766cbc81461f8cd5041eeaaacdc40e8f75a2213","infoHashBuffer":{"type":"Buffer","data":[39,102,203,200,20,97,248,205,80,65,238,170,172,220,64,232,247,90,34,19]},"announce":[],"urlList":[]}}